<?xml version="1.0" standalone="no"?>
<!DOCTYPE svg PUBLIC "-//W3C//DTD SVG 20010904//EN"
 "http://www.w3.org/TR/2001/REC-SVG-20010904/DTD/svg10.dtd">
<svg version="1.0" xmlns="http://www.w3.org/2000/svg"
 width="700.000000pt" height="700.000000pt" viewBox="0 0 700.000000 700.000000"
 preserveAspectRatio="xMidYMid meet">
<metadata>
Created by potrace 1.11, written by Peter Selinger 2001-2013
</metadata>
<g transform="translate(0.000000,700.000000) scale(0.100000,-0.100000)"
fill="#000000" stroke="none">
<path d="M3446 6386 c-116 -200 -164 -282 -184 -316 -26 -46 -69 -120 -187
-325 -54 -93 -106 -183 -115 -200 -10 -16 -59 -102 -110 -190 -51 -88 -154
-266 -228 -395 -74 -129 -191 -332 -260 -450 -69 -118 -133 -228 -142 -245
-10 -16 -34 -59 -55 -95 -21 -36 -51 -90 -68 -120 -17 -30 -48 -83 -69 -118
-21 -34 -38 -64 -38 -66 0 -2 -35 -64 -78 -137 -78 -133 -367 -632 -405 -699
-23 -42 -238 -415 -266 -462 -11 -18 -35 -60 -54 -93 -19 -33 -94 -163 -168
-290 -73 -126 -154 -268 -181 -315 -27 -47 -58 -101 -70 -120 -223 -380 -418
-725 -418 -738 0 -5 19 -40 41 -78 23 -37 53 -88 67 -113 14 -25 32 -58 41
-73 9 -14 41 -69 71 -122 30 -53 57 -96 60 -96 7 0 64 94 157 259 14 24 133
231 265 460 133 229 249 430 258 446 10 17 93 161 185 320 92 160 225 389 295
510 221 384 539 935 1065 1845 593 1026 627 1085 638 1098 11 14 -7 44 337
-553 117 -203 284 -493 371 -644 l158 -273 -78 -137 c-43 -75 -104 -181 -136
-236 -32 -55 -68 -118 -81 -140 -12 -22 -95 -166 -184 -320 -89 -154 -171
-296 -182 -315 -11 -19 -37 -64 -58 -100 -37 -63 -52 -91 -112 -195 -16 -27
-33 -57 -38 -65 -5 -8 -64 -109 -130 -225 -66 -115 -126 -219 -132 -230 -65
-110 -227 -392 -251 -435 -16 -30 -34 -59 -38 -65 -5 -5 -9 -12 -9 -16 0 -4
515 -7 1145 -7 l1145 0 -37 67 c-21 37 -85 149 -143 249 l-105 182 -572 2
-572 3 43 75 c24 41 120 208 213 370 94 162 179 311 190 330 33 59 242 420
294 508 27 45 49 85 49 88 0 2 8 17 19 32 29 42 331 570 331 579 0 4 -23 46
-50 92 -28 46 -50 86 -50 89 0 3 -21 39 -46 81 -25 42 -50 85 -57 96 -6 11
-48 84 -94 163 -46 79 -94 162 -107 185 -13 23 -90 157 -171 297 -81 140 -217
377 -303 525 -86 149 -235 407 -332 575 -98 168 -187 322 -198 343 l-20 39
-56 -96z"/>
<path d="M3426 4366 c-38 -66 -132 -228 -208 -359 -76 -131 -138 -241 -138
-244 0 -4 -6 -14 -14 -22 -7 -9 -27 -41 -43 -71 -30 -55 -361 -630 -454 -788
-27 -45 -49 -87 -49 -92 0 -6 -4 -10 -10 -10 -5 0 -10 -4 -10 -9 0 -8 -166
-299 -532 -931 -72 -124 -142 -245 -156 -270 -13 -25 -40 -70 -58 -100 -54
-91 -544 -943 -544 -946 0 -2 1161 -3 2581 -2 l2581 3 119 205 c66 113 129
224 141 247 l21 41 -59 103 c-32 57 -72 126 -88 154 -15 27 -61 106 -101 175
-156 268 -215 372 -215 381 0 5 -4 9 -10 9 -5 0 -10 4 -10 10 0 5 -36 70 -80
146 -44 75 -80 137 -80 139 0 2 -17 32 -38 66 -22 35 -50 84 -64 109 -75 136
-383 667 -394 680 -11 13 -55 15 -293 15 -169 0 -284 -4 -290 -10 -5 -6 -18
-26 -29 -45 -11 -19 -71 -125 -135 -235 -63 -110 -113 -202 -111 -204 3 -3
131 -5 285 -5 l281 -1 23 -40 c12 -22 89 -155 170 -295 81 -140 157 -271 167
-290 11 -19 24 -39 28 -45 4 -5 19 -31 33 -56 14 -26 94 -166 178 -310 83
-145 163 -284 177 -308 14 -25 37 -66 53 -92 18 -31 23 -49 16 -51 -18 -6
-3985 -3 -3991 3 -3 3 20 47 50 99 31 52 66 113 78 135 13 22 47 82 77 133 30
52 63 110 75 130 17 31 337 585 527 912 27 47 114 198 194 335 79 138 148 257
153 265 5 8 102 177 216 375 114 198 237 412 274 475 l67 116 -79 134 c-43 74
-84 146 -91 160 -24 47 -109 190 -115 194 -4 2 -38 -51 -76 -118z"/>
</g>
</svg>
